<?xml version="1.0" encoding="utf-8"?>
<!-- Generator: Adobe Illustrator 16.0.4, SVG Export Plug-In . SVG Version: 6.00 Build 0)  -->
<!DOCTYPE svg PUBLIC "-//W3C//DTD SVG 1.1//EN" "http://www.w3.org/Graphics/SVG/1.1/DTD/svg11.dtd">
<svg version="1.1" id="Layer_1" xmlns="http://www.w3.org/2000/svg" xmlns:xlink="http://www.w3.org/1999/xlink" x="0px" y="0px"
	 width="2391.932px" height="2393.122px" viewBox="0 0 2391.932 2393.122" enable-background="new 0 0 2391.932 2393.122"
	 xml:space="preserve">
<g fill="#989898">
	<path fill-rule="evenodd" clip-rule="evenodd" d="M2391.88,1248.695c-1.627,39.966-5.043,79.8-10.43,119.404
		c-3.271,24.057-8.008,47.945-12.896,71.742c-4.486,21.832-9.706,43.531-15.236,65.127c-8.263,32.26-17.637,64.201-29.576,95.339
		c-7.383,19.256-14.068,38.796-22.007,57.816c-8.458,20.263-17.524,40.311-27.233,60.002
		c-11.481,23.281-23.178,46.521-36.165,68.978c-15.491,26.788-31.954,53.053-48.896,78.953
		c-21.885,33.458-45.994,65.397-71.984,95.737c-23.163,27.04-47.298,53.315-72.111,78.852c-20.4,20.994-41.787,41.148-63.906,60.324
		c-23.869,20.692-48.568,40.523-73.86,59.454c-35.467,26.546-72.2,51.334-110.95,72.954c-20.346,11.352-40.371,23.417-61.359,33.446
		c-32.423,15.491-65.207,30.348-98.483,43.888c-26.168,10.649-53.309,18.91-80.021,28.22
		c-32.417,11.297-65.598,19.903-99.142,26.938c-29.967,6.285-59.991,12.896-90.325,16.668c-37.637,4.678-75.619,6.582-113.453,9.68
		c-4.23,0.347-105.728,1.035-107.756,0.884c-23.227-1.738-46.526-2.682-69.694-4.966c-23.83-2.35-47.671-5.16-71.264-9.191
		c-31.158-5.323-62.23-11.361-93.063-18.317c-37.35-8.427-74.04-19.394-110.151-32.199c-37.051-13.137-73.435-27.844-109.166-44.312
		c-48.461-22.336-95.025-48.064-140.102-76.486c-36.914-23.275-72.372-48.737-106.054-76.469
		c-23.596-19.427-46.609-39.664-68.746-60.734c-25.537-24.309-50.484-49.318-74.476-75.148
		c-26.508-28.539-50.825-59.015-73.567-90.69c-18.233-25.396-36.833-50.562-52.362-77.761
		c-18.475-32.355-37.806-64.295-54.649-97.489c-26.839-52.894-48.57-107.992-66.71-164.535
		c-15.18-47.312-27.754-95.234-36.216-144.174c-5.499-31.798-10.804-63.671-14.65-95.696c-2.935-24.428-3.468-49.145-5.006-73.737
		c-0.295-4.724-0.267-99.86-0.01-104.248c1.398-23.929,2.476-47.891,4.592-71.759c1.645-18.551,4.055-37.085,7.184-55.446
		c5.197-30.495,10.216-61.084,17.216-91.189c7.304-31.417,15.965-62.593,25.688-93.351c9.418-29.798,20.64-59.044,31.664-88.31
		c5.743-15.246,12.435-30.163,19.279-44.96c19.573-42.314,40.965-83.694,65.194-123.554c31.862-52.417,67.658-102.018,106.93-149.14
		c22.181-26.615,45.207-52.416,70.442-76.197c23.97-22.588,47.261-45.944,72.009-67.641c19.987-17.522,41.472-33.378,62.689-49.446
		c56.688-42.927,117.284-79.57,180.868-111.314c41.728-20.831,84.511-39.211,128.437-54.92
		c59.362-21.229,119.931-38.035,182.034-48.995c25.885-4.568,51.862-8.864,77.957-11.902c26.756-3.114,53.708-4.523,80.572-6.717
		c4.646-0.38,9.374-0.528,13.877-1.584c2.583-0.606,95.95-0.722,98.613-0.145c4.852,1.052,9.898,1.238,14.875,1.668
		c28.846,2.489,57.705,4.822,86.539,7.438c38.871,3.529,77.028,11.458,115.043,19.851c39.992,8.829,79.606,19.286,118.138,33.342
		c29.386,10.722,58.93,21.139,87.748,33.25c24.81,10.424,48.985,22.486,72.905,34.86c25.107,12.987,50.075,26.39,74.192,41.104
		c26.947,16.442,53.242,34.032,79.146,52.089c31.689,22.089,61.995,46.077,90.44,72.245c25.709,23.65,51.6,47.195,75.923,72.231
		c21.993,22.638,42.539,46.765,62.678,71.099c17.814,21.523,34.676,43.888,51.048,66.538c13.245,18.322,25.767,37.241,37.479,56.58
		c16.199,26.752,31.846,53.869,46.807,81.331c20.384,37.42,37.707,76.351,53.126,116.044
		c17.004,43.776,31.621,88.354,43.144,133.964c9.716,38.462,17.667,77.203,24,116.365c7.139,44.137,10.874,88.529,13.049,133.117
		C2391.901,1147.043,2391.998,1245.793,2391.88,1248.695z M2385.81,1194.834c-0.402-650.6-535.53-1203.783-1220.291-1186.44
		C854.719,16.266,585.56,130.508,363.882,348.419C128.878,579.43,11.942,862.839,6.101,1192.191
		C4.939,1854.312,540.666,2387.074,1196.312,2386.5C1850.031,2385.927,2385.231,1854.863,2385.81,1194.834z"/>
	<path fill-rule="evenodd" clip-rule="evenodd" d="M1198.573,239.802c525.476-1.44,958.106,429.796,955.324,961.897
		c-2.748,525.955-428.793,955.95-963.36,953.308c-527.061-2.604-955.2-430.598-952.298-963.457
		C241.105,665.394,670.588,237.197,1198.573,239.802z M1196.191,2146.811c263.052,2.436,514.163-112.823,683.801-291.899
		c184.401-194.661,274.166-427.014,264.88-694.681c-8.58-247.336-105.065-458.578-277.445-635.556
		c-197.163-190.653-432.461-284.455-707.038-276.737c-485.945,13.658-933.038,424.867-913.341,985.726
		c8.673,246.986,102.675,460.053,277.292,634.413C709.177,2052.639,934.826,2144.274,1196.191,2146.811z"/>
	<path fill-rule="evenodd" clip-rule="evenodd" d="M287.591,746.653c-4.702,8.349-9.046,16.062-13.986,24.833
		c-18.57-7.979-34.365-19.702-51.432-29.017c-17.111-9.338-33.665-19.7-51.256-30.08c7.983-13.779,15.435-26.599,22.84-39.446
		c2.384-4.135,6.217-4.334,10.378-4.354c20.642-0.098,41.284-0.331,61.927-0.513c1.665-0.015,3.336,0.099,4.994-0.013
		c8.563-0.573,10.676-4.335,6.519-11.684c-8.51-15.042-17.095-30.042-25.583-45.096c-2.448-4.339-4.254-9.103-7.109-13.136
		c-3.738-5.281-2.526-10.001,0.25-14.891c5.58-9.826,11.142-19.663,16.835-29.423c3.407-5.841,5.539-6.265,11.141-3.025
		c26.5,15.323,53.037,30.583,79.531,45.916c5.408,3.13,10.691,6.481,16.718,10.149c-4.078,6.821-7.633,13.131-11.544,19.211
		c-3.844,5.976-5.195,6.42-11.299,3.032c-11.06-6.138-21.938-12.604-32.867-18.978c-7.186-4.192-14.326-8.463-21.485-12.697
		c-0.859-0.508-1.688-1.365-2.586-1.444c-1.868-0.165-4.719-0.633-5.445,0.327c-1.16,1.531-1.866,4.577-1.098,6.188
		c2.712,5.688,6.104,11.054,9.288,16.514c9.556,16.385,19.283,32.671,28.654,49.161c6.12,10.771,4.25,21.481-5.334,28.895
		c-2.542,1.966-6.83,2.279-10.325,2.309c-22.644,0.197-45.289,0.096-67.934,0.118c-3.661,0.003-7.36-0.15-10.966,0.332
		c-1.729,0.232-4.562,1.691-4.636,2.751c-0.135,1.938,0.973,4.406,2.374,5.884c1.517,1.601,3.98,2.287,5.996,3.435
		c17.046,9.71,34.107,19.395,51.094,29.208C283.2,742.249,284.729,744.121,287.591,746.653z"/>
	<path fill-rule="evenodd" clip-rule="evenodd" d="M2052.86,651.591c35.914-18.289,70.22-35.758,105.549-53.75
		c2.111,3.404,3.95,6,5.414,8.792c4.943,9.428,9.396,19.133,14.751,28.316c3.128,5.365,2.95,9.402-0.464,14.573
		c-11.551,17.5-22.618,35.319-33.879,53.011c-0.535,0.841-1.217,1.594-1.725,2.451c-4.667,7.882-2.871,11.829,6.154,12.695
		c11.268,1.081,22.567,1.851,33.859,2.647c10.631,0.75,21.268,1.766,31.91,1.876c6.328,0.066,9.902,2.967,12.488,8.099
		c5.976,11.857,11.954,23.714,18.598,36.89c-34.166,19.293-69.614,35.616-104.944,54.915c-4.796-9.244-9.151-17.636-14.023-27.023
		c6.021-3.386,11.314-6.64,16.845-9.424c15.756-7.934,31.609-15.673,47.42-23.501c1.188-0.587,2.653-1.009,3.418-1.965
		c1.176-1.47,2.722-3.462,2.497-4.996c-0.218-1.484-2.264-3.204-3.892-3.851c-2.09-0.831-4.557-0.864-6.872-0.95
		c-23.962-0.886-47.921-2.006-71.892-2.397c-8.307-0.136-12.899-3.054-17.25-10.394c-5.413-9.131-3.58-15.285,2.021-23.299
		c13.521-19.349,25.969-39.445,38.852-59.24c0.363-0.559,1.025-1.094,1.059-1.667c0.141-2.474,1.08-5.902-0.148-7.179
		c-1.26-1.311-5.116-1.416-7.116-0.49c-7.22,3.345-14.111,7.391-21.171,11.087c-12.095,6.333-24.227,12.592-36.331,18.904
		c-3.118,1.625-6.4,3.122-8.67-0.879C2061.266,667.695,2057.536,660.365,2052.86,651.591z"/>
	<path fill-rule="evenodd" clip-rule="evenodd" d="M1826.051,401.239c28.454-30.752,54.758-59.179,81.444-88.02
		c3.116,2.252,5.377,3.561,7.25,5.288c25.176,23.213,50.394,46.384,75.392,69.79c10.844,10.153,18.059,21.885,15.931,37.917
		c-1.064,8.015-4.206,14.795-9.161,20.562c-9.31,10.835-18.836,21.561-29.081,31.5c-16.461,15.967-37.382,15.642-56.596-0.669
		c-10.389-8.818-20.018-18.532-30.051-27.774c-15.174-13.976-30.363-27.934-45.642-41.795
		C1833.09,405.817,1830.147,404.146,1826.051,401.239z M1937.548,455.215c3.189-1.514,6.37-2.192,8.352-4.11
		c7.607-7.364,15.326-14.717,22.057-22.856c6.714-8.12,6.019-15.521-1.698-23.041c-14.528-14.157-29.367-27.999-44.259-41.775
		c-5.708-5.282-9.156-5.283-14.594,0.267c-9.773,9.973-19.255,20.241-28.641,30.585c-4.153,4.578-4.189,8.117,0.17,12.2
		c15.527,14.544,31.162,28.982,47.078,43.099C1929.049,452.276,1933.545,453.322,1937.548,455.215z"/>
	<path fill-rule="evenodd" clip-rule="evenodd" d="M329.122,1926.652c27.883-27.064,55.655-54.021,84.318-81.841
		c6.9,6.724,13.151,12.549,19.103,18.666c18.556,19.065,37.024,38.219,55.465,57.396c3.219,3.35,6.309,6.854,9.176,10.509
		c13.432,17.123,11.806,37.662-2.615,52.544c-11.089,11.443-22.535,22.75-35.058,32.535c-12.744,9.959-24.085,9.886-41.031,0.983
		c-4.61-2.422-8.718-6.158-12.397-9.935c-24.834-25.479-49.496-51.126-74.183-76.747
		C331.017,1929.848,330.444,1928.634,329.122,1926.652z M434.702,1988.953c4.761-2.065,9.345-2.961,12.422-5.609
		c7.295-6.277,14.247-13.055,20.638-20.251c6.371-7.172,6.01-15.246-0.135-22.607c-2.765-3.314-5.911-6.312-8.914-9.425
		c-11.314-11.729-22.522-23.562-34.007-35.121c-5.953-5.991-8.973-5.768-15.094,0.131c-9.344,9.006-18.681,18.019-27.945,27.105
		c-6.603,6.476-6.816,8.263-0.709,14.714c14.167,14.962,28.413,29.854,42.932,44.472
		C426.741,1985.231,430.967,1986.734,434.702,1988.953z"/>
	<path fill-rule="evenodd" clip-rule="evenodd" d="M1561.178,2240.061c-1.303,15.984-7.866,28.857-22.943,34.853
		c-13.22,5.257-27.167,8.744-40.899,12.636c-12.762,3.619-25.697,6.621-38.496,10.117c-10.262,2.805-20.383,6.125-30.658,8.877
		c-7.611,2.039-9.766,0.461-11.979-7.559c-8.848-32.046-17.706-64.089-26.545-96.137c-1.946-7.057-0.925-8.77,6.068-10.697
		c32.046-8.836,64.054-17.814,96.158-26.434c6.685-1.795,13.692-2.947,20.601-3.238c16.27-0.684,28.316,7.666,34.703,24.926
		c5.967,16.123,9.309,33.218,13.768,49.896C1561.208,2238.246,1561.122,2239.283,1561.178,2240.061z M1525.507,2232.014
		c-1.774-6.53-4.002-15.916-6.898-25.09c-3.757-11.896-10.59-15.956-22.852-12.957c-20.044,4.903-39.957,10.355-59.867,15.785
		c-5.516,1.506-7.505,5.01-5.833,11.808c3.413,13.888,7.262,27.683,11.433,41.362c2.011,6.594,4.644,7.602,11.429,5.777
		c7.706-2.072,15.335-4.434,23.019-6.596c12.171-3.424,24.414-6.607,36.523-10.24
		C1520.821,2249.355,1525.394,2243.033,1525.507,2232.014z"/>
	<path fill-rule="evenodd" clip-rule="evenodd" d="M1853.34,2071.65c2.482-5.642-0.421-8.651-2.682-11.9
		c-11.597-16.672-23.186-33.35-34.726-50.061c-5.287-7.655-5.247-7.79,2.18-13.398c2.922-2.206,5.907-4.343,8.984-6.325
		c8.306-5.351,8.799-5.348,14.412,2.369c4.896,6.73,9.45,13.708,14.176,20.562c13.784,19.99,27.596,39.96,41.361,59.962
		c6.097,8.858,5.857,9.671-2.979,15.604c-9.942,6.675-19.948,13.272-29.634,20.307c-3.693,2.684-7.044,3.058-11.158,1.751
		c-27.605-8.755-55.233-17.438-82.868-26.097c-4.355-1.365-8.736-3.573-14.58,0.008c1.388,3.045,2.403,6.416,4.284,9.204
		c8.561,12.694,17.364,25.225,26.084,37.811c3.594,5.187,7.126,10.418,10.821,15.531c2.702,3.74,2.074,6.972-1.442,9.49
		c-5.936,4.253-11.959,8.402-18.147,12.276c-4.022,2.518-6.918,0.143-9.2-3.156c-11.168-16.146-22.33-32.296-33.476-48.457
		c-7.939-11.514-15.901-23.012-23.755-34.582c-5.747-8.467-5.563-8.901,3.035-14.713c9.103-6.151,18.356-12.108,27.145-18.685
		c5.04-3.771,9.958-4.718,15.851-3.013c16.29,4.713,32.626,9.27,48.948,13.871c13.096,3.692,26.174,7.449,39.317,10.969
		C1847.954,2071.691,1850.87,2071.467,1853.34,2071.65z"/>
	<path fill-rule="evenodd" clip-rule="evenodd" d="M185.023,1195.204c-1.006,15.604-1.259,31.302-3.212,46.785
		c-2.375,18.832-11.826,28.126-27.832,30.196c-20.913,2.708-41.76,2.409-62.701-0.049c-16.857-1.978-24.664-12.831-26.898-26.512
		c-5.407-33.107-5.153-66.373,0.041-99.487c2.598-16.564,13.719-26.398,30.567-27.968c18.25-1.699,36.566-2.401,54.817-0.118
		c16.413,2.054,30.382,10.935,32.211,33.256c0.598,7.296,1.584,14.57,1.917,21.877c0.333,7.31,0.073,14.647,0.073,21.973
		C184.346,1195.173,184.684,1195.188,185.023,1195.204z M92.129,1195.433c0.08-0.001,0.16-0.001,0.239-0.001
		c0,9.312-0.366,18.641,0.095,27.929c0.55,11.084,6.666,16.907,17.763,17.359c9.626,0.393,19.271,0.329,28.907,0.496
		c5.896,0.102,10.632-2.554,13.055-7.575c2.099-4.347,3.592-9.414,3.725-14.207c0.47-16.947,0.414-33.916,0.215-50.872
		c-0.129-11.027-6.997-18.064-17.977-18.444c-9.297-0.322-18.631-0.257-27.925,0.157c-11.997,0.534-17.846,6.909-18.067,19.219
		C92.004,1178.138,92.129,1186.786,92.129,1195.433z"/>
	<path fill-rule="evenodd" clip-rule="evenodd" d="M1065.647,191.502c-10.062,1.373-18.522,2.701-27.025,3.619
		c-4.777,0.517-6.1-2.72-6.52-6.899c-1.03-10.261-2.522-20.479-3.438-30.749c-2.213-24.847-4.213-49.712-6.26-74.574
		c-0.105-1.282,0.167-2.595,0.299-4.378c1.866-0.673,3.61-1.732,5.433-1.89c14.248-1.239,28.521-2.182,42.762-3.499
		c4.262-0.394,6.9,1.727,9.508,4.389c9.548,9.749,19.121,19.473,28.627,29.261c12.044,12.401,24.031,24.858,36.047,37.287
		c2.344,2.424,5.112,5.534,8.39,2.947c1.763-1.392,2.451-5.192,2.277-7.816c-1.072-16.244-2.506-32.465-3.869-48.688
		c-0.418-4.972-1.073-9.923-1.481-14.896c-0.625-7.612,0.227-8.723,7.508-9.961c2.292-0.391,4.622-0.586,6.942-0.785
		c13.858-1.188,15.787,0.5,16.801,14.013c2.465,32.828,5.015,65.649,7.485,98.476c0.096,1.265-0.287,2.565-0.388,3.369
		c-0.631,0.676-0.838,1.104-1.078,1.124c-15.842,1.309-31.673,2.971-47.543,3.537c-3.18,0.114-7.041-3.446-9.685-6.184
		c-14.559-15.084-28.854-30.423-43.204-45.708c-5.918-6.304-11.592-12.849-17.726-18.932c-1.613-1.6-4.974-3.097-6.723-2.451
		c-1.853,0.686-3.373,3.842-3.877,6.172c-0.536,2.472,0.275,5.241,0.525,7.878C1061.443,147.3,1063.455,168.44,1065.647,191.502z"/>
	<path fill-rule="evenodd" clip-rule="evenodd" d="M616.648,362.796c-9.064,7.521-17.153,14.233-25.897,21.488
		c-4.217-4.614-7.63-8.601-11.312-12.322c-8.182-8.268-14.546-8.687-23.538-1.613c-12.036,9.468-24.032,18.989-35.997,28.548
		c-7.572,6.051-7.851,8.757-1.751,16.371c2.706,3.376,5.724,6.506,8.373,9.925c4.06,5.239,4.094,6.789-0.541,10.913
		c-5.213,4.638-10.814,8.84-16.206,13.281c-3.39,2.792-6.223,1.585-8.638-1.267c-3.871-4.57-7.598-9.262-11.348-13.932
		c-17.499-21.794-34.986-43.598-52.478-65.397c-6.642-8.278-6.502-9.212,1.794-15.855c26.763-21.433,53.622-42.75,80.171-64.446
		c7.359-6.014,15.473-7.883,24.229-6.331c3.899,0.691,8.095,3.293,10.829,6.253c6.535,7.076,12.751,14.563,18.137,22.532
		c2.426,3.587,3.104,8.66,3.622,13.168c0.974,8.472,0.819,8.787,8.87,10.598c8.479,1.907,15.352,6.267,20.63,13.1
		C609.021,352.239,612.251,356.817,616.648,362.796z M546.581,337.112c-0.78-9.958-4.653-15.326-11.39-18.762
		c-6.212-3.167-11.197-1.294-16.314,2.984c-10.417,8.706-21.272,16.887-31.871,25.379c-2.84,2.276-5.503,4.798-8.074,7.379
		c-3.62,3.633-3.613,7.544-0.537,11.595c3.004,3.955,5.798,8.073,8.896,11.95c3.946,4.938,7.946,5.599,12.875,1.665
		c13.737-10.966,27.451-21.976,40.803-33.401C543.943,343.355,545.397,339.037,546.581,337.112z"/>
	<path fill-rule="evenodd" clip-rule="evenodd" d="M871.939,2280.892c-8.314-1.919-17.039-3.675-25.603-6.019
		c-4.072-1.113-4.039-4.771-3.174-8.284c2.146-8.729,4.218-17.477,6.453-26.183c6.292-24.502,12.685-48.979,18.959-73.484
		c1.801-7.035,2.637-7.921,10.635-5.951c21.964,5.412,43.849,11.14,65.757,16.774c10.639,2.737,21.265,5.529,31.886,8.336
		c2.574,0.68,5.142,1.418,7.65,2.303c13.831,4.88,19.238,11.683,17.422,26.212c-1.385,11.098-5.222,21.935-8.532,32.715
		c-0.781,2.543-3.522,4.843-5.899,6.465c-5.239,3.579-7.261,8.199-4.146,13.677c7.453,13.108,0.713,25.245-1.952,37.666
		c-0.68,3.172-3.157,4.063-6.195,3.339c-7.753-1.85-15.531-3.609-23.237-5.641c-3.875-1.021-5.208-3.663-3.966-7.674
		c1.279-4.128,2.577-8.299,3.275-12.548c1.327-8.086-1.765-13.613-9.531-16.49c-5.915-2.191-12.084-3.741-18.21-5.302
		c-10.302-2.627-20.652-5.066-30.994-7.529c-9.263-2.206-11.539-0.741-14.065,8.846c-1.355,5.144-2.687,10.294-4.149,15.408
		C874.072,2278.41,873.222,2279.121,871.939,2280.892z M951.894,2239.85c1.463-0.281,2.784-0.453,4.059-0.795
		c6.829-1.831,11.936-9.262,12.19-17.67c0.184-6.096-3.814-12.091-10.646-14.092c-15.332-4.491-30.804-8.506-46.237-12.643
		c-12.27-3.287-13.8-2.309-17.372,10.424c-0.718,2.559-1.787,5.024-2.445,7.598c-2.094,8.173-0.044,11.617,8.292,13.885
		c8.354,2.274,16.727,4.48,25.118,6.613C933.877,2235.466,942.933,2237.643,951.894,2239.85z"/>
	<path fill-rule="evenodd" clip-rule="evenodd" d="M2291.222,1482.061c-2.62,11.658-4.854,21.594-7.367,32.772
		c-7.762-1.47-15.135-2.659-22.414-4.28c-28.221-6.288-56.4-12.766-84.621-19.056c-8.176-1.823-9.186-3.449-7.308-11.608
		c7.68-33.36,15.141-66.771,22.931-100.104c1.109-4.744,3.096-9.449,5.529-13.683c4.849-8.435,12.502-11.598,22.054-9.749
		c8.158,1.577,16.292,3.286,24.405,5.084c6.31,1.397,12.017,3.839,15.652,9.699c2.766,4.459,7.024,5.371,11.244,2.903
		c13.047-7.633,25.847-2.868,38.589,0.518c1.701,0.451,3.924,4.018,3.677,5.839c-1.067,7.875-2.662,15.723-4.8,23.373
		c-0.455,1.629-3.957,3.327-6.094,3.377c-4.611,0.108-9.238-1.077-13.878-1.292c-9.093-0.423-14.882,3.461-16.612,12.119
		c-3.188,15.953-7.302,31.72-10.808,47.613c-1.611,7.305,1.166,10.979,8.908,12.526
		C2276.755,1479.401,2283.226,1480.558,2291.222,1482.061z M2245.995,1408.541c-0.318-7.087-1.014-12.699-6.019-14.909
		c-10.858-4.797-22.842-6.268-26.882,9.357c-0.665,2.576-1.219,5.183-1.829,7.774c-2.746,11.653-5.312,23.354-8.286,34.947
		c-3.595,14.009-2.033,16.724,12.327,19.773c15.969,3.391,19.045,1.325,22.097-14.854c0.186-0.979,0.164-1.998,0.371-2.972
		c1.582-7.474,3.221-14.936,4.796-22.411C2243.87,1419.074,2245.106,1412.888,2245.995,1408.541z"/>
	<path fill-rule="evenodd" clip-rule="evenodd" d="M2121.23,1686.908c-4.449,7.469-8.339,14.403-12.694,21.033
		c-1.136,1.728-3.645,3.394-5.65,3.562c-7.632,0.64-11.843,5.518-15.451,11.331c-7.021,11.309-13.992,22.649-20.916,34.018
		c-1.379,2.268-2.739,4.621-3.608,7.108c-2.246,6.436-0.336,11.247,5.365,14.369c5.724,3.134,10.539,2.113,14.613-3.801
		c7.36-10.685,14.347-21.625,21.624-32.368c6.345-9.367,12.855-18.622,19.331-27.9c3.892-5.578,8.744-10.027,15.186-12.538
		c5.828-2.271,11.956-3.029,17.441,0.04c7.517,4.207,15.131,8.609,21.628,14.183c10.542,9.043,12.449,21.771,6.375,34.48
		c-11.947,25.003-26.387,48.536-42.526,71.019c-3.472,4.834-7.511,9.434-11.99,13.336c-10.388,9.051-23.898,9.172-33.854,1.366
		c-4.016-3.146-4.444-6.264-1.903-10.278c3.206-5.067,6.112-10.366,9.759-15.095c1.607-2.084,4.696-4.191,7.156-4.244
		c8.484-0.18,13.407-4.957,17.469-11.495c7.553-12.156,15.258-24.218,22.67-36.458c1.496-2.472,2.449-5.502,2.811-8.381
		c0.74-5.895-1.745-10.545-6.064-12.647c-4.375-2.13-9.342-1.32-13.472,3.412c-4.577,5.247-8.582,11.027-12.511,16.798
		c-9.551,14.029-18.873,28.213-28.363,42.284c-5.193,7.7-11.701,13.669-21.346,15.139c-1.639,0.249-3.434,0.91-4.921,0.509
		c-11.515-3.111-21.789-9.115-29.298-18.001c-6.338-7.502-5.272-17.361-2.79-26.794c3.637-13.813,11.851-25.28,18.773-37.351
		c7.111-12.398,15.025-24.368,23.112-36.165c5.745-8.382,13.171-15.023,23.752-16.908
		C2108.264,1679.166,2114.675,1680.911,2121.23,1686.908z"/>
	<path fill-rule="evenodd" clip-rule="evenodd" d="M1539.516,220.085c0.873-4.211,1.152-8.66,2.724-12.591
		c6.294-15.744,12.877-31.375,19.625-46.93c1.43-3.295,3.957-6.125,6.062-9.11c8.873-12.585,21.207-15.572,35.322-11.78
		c29.406,7.901,57.341,19.465,83.201,35.643c15.62,9.772,20.438,24.944,13.503,40.349c-2.848,6.327-4.269,7.053-10.711,4.719
		c-4.693-1.7-9.231-3.82-13.886-5.632c-5.277-2.055-8.954-4.919-9.713-11.312c-0.729-6.143-5.75-9.527-11.097-11.867
		c-14.027-6.141-28.087-12.213-42.196-18.162c-9.694-4.087-19.804-0.269-24.274,9.354c-3.361,7.233-6.422,14.632-9.158,22.123
		c-4.007,10.963-0.508,18.85,10.026,23.5c13.395,5.912,26.896,11.59,40.191,17.719c6.957,3.206,13.396,3.754,19.662-1.185
		c2.611-2.058,5.178-2.4,8.315-0.953c6.344,2.927,12.889,5.419,19.252,8.307c5.4,2.45,5.909,3.828,3.834,9.311
		c-1.059,2.797-2.267,5.562-3.67,8.202c-6.125,11.514-17.021,17.271-29.914,14.928c-23.107-4.2-44.812-12.737-65.757-23.101
		c-9.215-4.559-18.156-9.837-26.68-15.589C1543.602,238.888,1539.884,231.225,1539.516,220.085z"/>
	<path fill-rule="evenodd" clip-rule="evenodd" d="M721.68,296.02c-11.873-0.056-20.573-5.428-26.975-14.924
		c-11.253-16.689-19.25-35.012-25.53-53.986c-5.536-16.725-1.778-31.156,16.437-42.232c26.331-16.011,54.107-28.436,83.6-37.202
		c10.582-3.145,24.37,1.672,30.689,11.239c1.824,2.76,3.3,5.796,4.588,8.853c2.27,5.39,1.782,6.455-3.806,9.166
		c-4.791,2.323-9.717,4.372-14.459,6.786c-5.309,2.703-10.076,3.861-15.585-0.295c-4.254-3.21-9.628-2.179-14.36-0.03
		c-14.243,6.466-28.547,12.818-42.59,19.697c-10.215,5.004-13.03,12.744-8.843,23.102c2.991,7.401,6.209,14.754,9.95,21.796
		c5.493,10.337,14.796,13.47,25.274,8.728c14.242-6.447,28.336-13.211,42.524-19.776c5.284-2.446,8.603-6.514,9.072-12.202
		c0.459-5.565,3.504-8.077,8.309-9.885c4.955-1.866,9.622-4.482,14.471-6.643c5.867-2.615,7.522-2.045,10.442,3.264
		c9.303,16.917,6.139,32.479-9.617,43.886c-7.251,5.25-15.083,9.798-23.006,13.997c-19.143,10.139-38.963,18.754-59.891,24.575
		C728.885,294.901,725.249,295.337,721.68,296.02z"/>
	<path fill-rule="evenodd" clip-rule="evenodd" d="M1183.552,2332.789c-16.23-1.004-32.857-1.91-49.459-3.149
		c-3.93-0.293-7.808-1.586-11.655-2.619c-12.702-3.409-19.696-12.13-21.711-24.724c-2.586-16.172-3.364-32.461-1.021-48.767
		c0.945-6.583,1.449-13.292,3.113-19.693c3.679-14.155,13.131-21.943,27.727-23.382c27.949-2.754,55.918-2.342,83.816,0.475
		c5.843,0.59,11.775,2.597,17.144,5.08c13.034,6.026,19.236,17.812,17.862,31.729c-0.368,3.731-2.213,5.529-5.658,5.579
		c-7.661,0.109-15.356,0.355-22.972-0.264c-2.401-0.195-5.594-2.464-6.687-4.651c-2.927-5.861-7.705-8.459-13.603-8.631
		c-16.959-0.492-33.946-0.996-50.896-0.555c-10.93,0.283-14.522,4.45-15.727,15.449c-0.833,7.604-1.751,15.26-1.689,22.887
		c0.12,14.695,6.238,20.562,20.649,20.854c14.967,0.305,29.935,0.559,44.9,0.939c5.731,0.146,10.75-1.49,13.838-6.378
		c2.487-3.938,5.756-5.184,10.028-5.15c6.332,0.052,12.663,0.003,18.995,0.018c4.97,0.013,7.345,2.564,7.151,7.49
		c-0.696,17.789-3.487,30.95-27.88,34.469C1207.991,2331.501,1195.965,2331.811,1183.552,2332.789z"/>
	<path fill-rule="evenodd" clip-rule="evenodd" d="M477.599,479.164c-28.762,32.546-56.719,64.179-85.64,96.905
		c-29.738-26.06-59.146-51.613-88.903-78.367c27.542-33.029,55.417-64.086,83.914-95.857c3.926,3.367,6.846,5.963,9.868,8.435
		c2.819,2.304,5.747,4.476,9.395,7.301c-7.541,8.634-13.787,15.83-20.083,22.981c-10.997,12.49-22.023,24.954-33.037,37.429
		c-0.661,0.749-1.414,1.438-1.965,2.261c-2.151,3.219-6.403,6.599-3.205,10.492c2.981,3.627,7.423,6.445,11.779,8.341
		c1.516,0.659,5.238-2.02,7.03-4.005c15.613-17.303,31.002-34.808,46.511-52.205c1.276-1.432,2.942-2.517,5.381-4.564
		c5.117,4.932,10.002,9.639,15.461,14.897c-7.505,8.797-14.294,16.885-21.226,24.849c-9.402,10.803-18.901,21.521-28.384,32.254
		c-2.47,2.794-5.74,6.035-3.134,9.562c2.831,3.83,6.895,7.014,11.025,9.46c1.251,0.741,4.917-1.448,6.756-3.098
		c3.203-2.873,5.858-6.356,8.718-9.608c13.192-15.005,26.253-30.128,39.601-44.992c10.482-11.672,11.112-11.569,22.708-0.509
		C472.541,473.385,474.634,475.938,477.599,479.164z"/>
	<path fill-rule="evenodd" clip-rule="evenodd" d="M1953.678,520.077c10.188-8.089,18.741-14.924,27.34-21.701
		c18.04-14.219,36.104-28.41,54.159-42.61c1.048-0.824,2.091-1.654,3.154-2.457c8.634-6.521,9.857-6.307,16.559,2.734
		c2.182,2.943,4.407,5.853,6.669,8.734c20.138,25.652,40.256,51.317,60.471,76.907c2.366,2.996,3.766,5.833,0.261,8.569
		c-4.915,3.838-10.105,7.324-15.926,11.496c-3.577-4.093-6.748-7.402-9.561-10.992c-13.742-17.542-27.304-35.226-41.107-52.717
		c-6.029-7.639-10.156-7.911-17.511-1.927c-5.442,4.427-5.882,7.732-1.347,13.565c7.969,10.25,16.084,20.387,24.157,30.556
		c6.209,7.82,12.552,15.538,18.644,23.449c4.644,6.032,4.499,7.652-1.071,12.486c-3.196,2.771-6.806,5.065-11.028,8.159
		c-5.778-7.001-11.1-13.266-16.221-19.69c-10.574-13.266-20.85-26.776-31.634-39.868c-5.895-7.156-8.687-7.382-14.032-3.064
		c-6.932,5.599-8.014,10.153-2.77,16.998c10.119,13.21,20.736,26.038,31.074,39.081c5.378,6.787,10.654,13.654,15.859,20.573
		c1.545,2.053,2.693,4.404,4.529,7.46c-6.675,5.512-12.973,10.714-20.348,16.805
		C2006.724,588.487,1980.551,554.747,1953.678,520.077z"/>
	<path fill-rule="evenodd" clip-rule="evenodd" d="M318.173,1870.897c-7.371,5.414-13.985,10.272-21.459,15.764
		c-14.685-17.142-25.234-36.014-37.409-53.642c-12-17.375-25.343-33.982-35.117-52.492c8.874-9.354,88.938-63.305,98.383-66.129
		c23.024,33.906,46.272,68.142,70.079,103.205c-5.67,4.086-10.339,7.715-15.279,10.928c-3.752,2.44-6.807,1.157-9.271-2.534
		c-7.574-11.346-15.276-22.606-22.961-33.877c-6.545-9.602-13.148-19.164-19.697-28.763c-2.357-3.454-5.356-7.217-9.634-5.12
		c-4.216,2.066-8.058,5.627-10.887,9.411c-1.044,1.396,0.625,5.738,2.155,7.989c9.913,14.579,20.196,28.905,30.212,43.415
		c4.133,5.986,7.907,12.222,11.845,18.344c-0.709,1.15-1.055,2.15-1.745,2.764c-14.379,12.802-15.366,12.565-25.927-3.313
		c-10.684-16.063-21.583-31.985-32.524-47.875c-5.663-8.225-14.87-7.726-19.59,1.177c-1.077,2.029-1.201,5.319-0.337,7.453
		c1.472,3.636,3.979,6.878,6.215,10.175C289.225,1828.406,303.271,1849.006,318.173,1870.897z"/>
	<path fill-rule="evenodd" clip-rule="evenodd" d="M1691.585,2136.818c1.359,1.232,2.037,1.58,2.305,2.127
		c10.483,21.422,8.716,17.062-8.131,24.627c-17.925,8.051-35.767,16.29-53.564,24.619c-7.032,3.291-8.232,7.514-4.766,14.627
		c3.597,7.383,6.646,8.591,14.337,5.104c22.443-10.173,44.85-20.43,67.231-30.738c9.35-4.306,9.84-4.226,14.329,4.807
		c1.482,2.98,3.062,5.921,4.391,8.97c2.41,5.534,2.065,6.75-3.287,9.341c-7.471,3.618-15.084,6.941-22.621,10.426
		c-28.396,13.125-56.782,26.272-85.192,39.366c-0.854,0.394-1.934,0.293-4.254,0.603c-15.873-35.268-33.522-70.024-48.728-106.678
		c11.665-5.672,22.022-10.881,32.525-15.778c25.038-11.68,50.149-23.202,75.222-34.809c6.138-2.841,7.512-2.567,10.149,3.116
		c2.213,4.771,4.039,9.723,6.448,15.601c-4.977,2.735-9.399,5.502-14.092,7.688c-19.916,9.272-39.9,18.397-59.887,27.518
		c-3.761,1.717-8.294,3.782-7.467,8.186c0.863,4.593,3.468,9.318,6.617,12.806c1.308,1.447,6.391,0.688,9.099-0.529
		c19.435-8.731,38.676-17.889,58.038-26.784C1684.098,2139.28,1688.16,2138.08,1691.585,2136.818z"/>
	<path fill-rule="evenodd" clip-rule="evenodd" d="M154.325,1641.709c-5.005-10.299-9.567-19.686-14.438-29.707
		c3.604-1.901,6.12-3.366,8.746-4.594c30.716-14.355,61.445-28.685,92.181-42.998c5.798-2.7,7.076-2.474,10.075,3.631
		c6.595,13.424,13.001,26.945,19.188,40.562c7.426,16.348,15.593,32.467,21.522,49.357c7.188,20.473,0.591,34.56-15.265,42.134
		c-8.666,4.139-17.386,8.377-26.478,11.366c-16.286,5.354-27.616-1.504-37.306-15.521c-2.82-4.079-4.984-8.661-7.08-13.183
		c-6.009-12.974-11.83-26.034-17.725-39.06c-0.137-0.304-0.293-0.599-0.435-0.899c-5.742-12.137-7.761-12.868-19.711-7.229
		C163.487,1637.508,159.347,1639.388,154.325,1641.709z M262.521,1659.62c-0.55-1.808-1.19-5.101-2.528-8.079
		c-4.076-9.08-8.384-18.057-12.675-27.038c-2.431-5.088-4.822-10.21-7.571-15.126c-2.249-4.021-5.513-5.394-10.011-2.881
		c-4.048,2.262-8.321,4.13-12.535,6.085c-8.932,4.145-9.663,6.262-5.345,15.357c5.689,11.984,11.558,23.892,16.923,36.02
		c6.267,14.167,14.37,16.919,27.386,8.785C260.497,1670.036,262.51,1666.127,262.521,1659.62z"/>
	<path fill-rule="evenodd" clip-rule="evenodd" d="M262.48,797.339c-4.292,12.917-7.879,23.915-11.619,34.862
		c-1.374,4.021-4.87,5.582-8.694,5.506c-14.464-0.284-19.815,8.473-23.051,20.996c-3.489,13.501-8.293,26.682-12.93,39.86
		c-2.393,6.799-1.884,12.562,4.147,16.846c9.689,6.882,9.892,14.967,4.987,25.024c-3.413,7.001-5.084,14.852-7.775,23.058
		c-2.586-1.327-4.339-1.711-5.303-2.795c-26.944-30.312-53.765-60.731-80.73-91.023c-4.429-4.975-6.023-9.722-3.051-16.257
		c3.15-6.928,5.366-14.311,7.599-21.615c1.642-5.374,4.735-8.123,10.38-9.238c24.768-4.891,49.467-10.132,74.18-15.301
		c13.989-2.927,27.948-6.002,41.941-8.908C255.057,797.834,257.657,797.812,262.48,797.339z M152.859,851.059
		c0.467,3.349,0.106,5.483,1.001,6.429c7.472,7.903,14.998,15.776,22.914,23.226c2.499,2.351,6.186,1.299,7.455-1.961
		c3.227-8.295,6.318-16.694,8.626-25.277c1.224-4.553-1.535-7.545-5.785-7.061C175.974,847.677,164.928,849.388,152.859,851.059z"/>
	<path fill-rule="evenodd" clip-rule="evenodd" d="M1669.98,293.236c3.809-2.406,6.641-4.515,9.739-6.102
		c18.055-9.249,36.153-18.411,54.272-27.533c16.945-8.531,33.945-16.957,50.896-25.476c3.949-1.984,7.762-1.799,11.395,0.535
		c7.562,4.861,15.011,9.896,22.578,14.747c4.124,2.645,5.449,6.309,5.183,11.064c-2.046,36.579-3.994,73.164-5.963,109.746
		c-0.317,5.89-0.582,11.783-0.925,18.77c-3.124-1.306-5.316-1.881-7.136-3.042c-7.291-4.655-14.375-9.636-21.719-14.203
		c-4.146-2.579-6.735-5.858-5.256-10.685c4.232-13.814-2.009-21.496-13.795-27.904c-12.526-6.81-24.262-15.156-35.958-23.38
		c-6.126-4.308-11.569-4.223-17.502-0.376c-1.954,1.267-4.007,2.379-5.964,3.64c-3.717,2.396-6.884,2.552-10.901-0.275
		c-7.316-5.146-15.268-9.385-22.857-14.156C1674.206,297.437,1672.712,295.679,1669.98,293.236z M1792.159,277.646
		c0.139-7.259-2.42-10.231-7.713-7.472c-8.518,4.44-16.823,9.334-24.948,14.465c-3.968,2.504-4.412,6.491-0.948,9.115
		c7.116,5.393,14.5,10.514,22.194,15.032c4.356,2.557,7.896,0.489,8.614-4.599C1790.564,295.66,1791.2,287.05,1792.159,277.646z"/>
	<path fill-rule="evenodd" clip-rule="evenodd" d="M1505.73,229.746c-13.134-2.933-24.442-5.45-35.746-7.983
		c-3.749-0.841-5.193-3.477-6.124-7.021c-5.225-19.914-2.177-16.914-24.056-22.196c-11.316-2.731-22.745-5.02-34.002-7.97
		c-11.005-2.884-20.407-2.404-26.566,8.979c-2.721,5.028-7.063,6.191-12.774,4.643c-10.2-2.765-20.576-4.875-32.007-7.521
		c1.823-2.759,2.779-4.751,4.216-6.298c27.207-29.28,54.549-58.437,81.646-87.818c4.323-4.687,8.376-6.681,14.828-4.602
		c7.256,2.338,14.813,3.993,22.364,5.088c7.302,1.06,9.776,5.781,11.604,11.886c4.965,16.584,10.069,33.127,15.244,49.647
		c6.565,20.958,13.277,41.871,19.853,62.826C1504.867,223.503,1505.021,225.757,1505.73,229.746z M1449.767,157.729
		c-2.192-8.825-4.293-18.528-7.115-28.017c-1.119-3.761-5.853-4.399-9.043-0.947c-6.51,7.043-12.771,14.387-18.416,22.131
		c-3.382,4.64-1.238,9.395,4.249,10.717c7.399,1.784,14.887,3.292,22.409,4.439C1447.272,166.879,1449.625,164.331,1449.767,157.729
		z"/>
	<path fill-rule="evenodd" clip-rule="evenodd" d="M665.521,2201.722c-11.992-7.736-21.729-13.984-31.428-20.292
		c-3.27-2.127-3.564-5.35-2.994-8.854c3.284-20.203,1.288-17.231-14.765-28.066c-11.014-7.432-22.767-13.795-33.571-21.503
		c-6.627-4.727-12.82-6.009-19.149-1.159c-8.32,6.377-15.687,6.513-24.087-0.072c-6.721-5.27-14.445-9.258-22.183-14.103
		c2.962-4.846,7.357-6.644,11.266-8.687c22.694-11.861,45.521-23.467,68.28-35.206c10.637-5.486,21.251-11.022,31.818-16.643
		c5.745-3.056,10.975-3.653,16.698,0.615c5.84,4.356,12.281,7.932,18.587,11.63c4.462,2.616,6.604,6.138,6.432,11.416
		c-0.718,21.956-1.163,43.922-1.902,65.877c-0.57,16.959-1.418,33.909-2.169,50.862
		C666.185,2191.408,665.905,2195.272,665.521,2201.722z M639.139,2089.291c0.743-6.867-2.211-10.671-6.808-8.255
		c-9.315,4.898-18.189,10.701-26.923,16.606c-3.276,2.215-3.211,5.929,0.271,8.311c7.087,4.849,14.219,9.686,21.68,13.917
		c4.833,2.741,8.364,0.673,9.109-4.952C637.596,2106.408,638.271,2097.836,639.139,2089.291z"/>
	<path fill-rule="evenodd" clip-rule="evenodd" d="M848.132,237.266c0.492-4.322,0.493-6.908,1.108-9.341
		c9.221-36.428,18.521-72.835,27.804-109.247c0.493-1.935,1.101-3.846,1.474-5.804c0.973-5.113,3.981-8.102,8.959-9.584
		c8.896-2.65,17.694-5.631,26.578-8.328c3.412-1.035,6.233-0.136,8.992,2.529c29.412,28.412,58.96,56.684,88.431,85.035
		c1.395,1.343,2.421,3.07,3.858,4.926c-4.267,5.351-10.59,5.568-15.994,7.471c-4.683,1.65-9.716,2.311-14.398,3.962
		c-5.078,1.79-9.488,1.27-12.277-3.348c-7.609-12.598-17.641-12.211-30.032-7.678c-13.391,4.9-27.394,8.18-41.232,11.773
		c-6.694,1.739-10.36,5.538-11.092,12.32c-0.215,1.983-0.32,3.991-0.708,5.942c-1.1,5.547-3.452,9.722-9.741,11.138
		C869.641,231.334,859.562,234.263,848.132,237.266z M900.062,161.415c-0.414,7.011,2.036,10.666,6.152,9.741
		c8.678-1.95,17.335-4.253,25.691-7.272c5.404-1.952,6.056-5.679,2.347-9.969c-6.039-6.985-12.282-13.811-18.733-20.417
		c-4.433-4.539-8.506-3.561-10.06,2.553C903.192,144.982,901.592,154.084,900.062,161.415z"/>
	<path fill-rule="evenodd" clip-rule="evenodd" d="M70.39,1331.147c38.746-6.967,76.542-13.763,115.468-20.763
		c1.311,4.72,2.781,8.702,3.5,12.817c4.41,25.225,8.649,50.479,12.945,75.724c1.503,8.833,3.155,17.644,4.458,26.507
		c0.994,6.756-0.058,8.182-6.806,9.481c-4.526,0.872-9.155,1.21-14.278,1.854c-4.775-10.791-5.256-22.199-7.372-33.179
		c-2.832-14.701-4.854-29.562-7.887-44.218c-2.295-11.094-10.121-14.205-19.876-8.15c-2.098,1.302-3.806,4.78-3.94,7.346
		c-0.221,4.234,0.856,8.566,1.614,12.816c3.211,18.016,6.573,36.005,9.703,54.035c0.492,2.838,0.068,5.835,0.068,9.606
		c-7.281,1.503-14.318,2.956-22.612,4.669c-3.174-11.518-5.419-22.397-7.14-33.457c-2.147-13.8-4.493-27.576-7.143-41.286
		c-1.206-6.24-3.377-7.453-10.09-6.506c-8.89,1.255-17.733,2.845-26.596,4.292c-7.577,1.238-8.462,0.789-9.972-6.987
		C72.929,1347.998,71.852,1340.163,70.39,1331.147z"/>
	<path fill-rule="evenodd" clip-rule="evenodd" d="M2309.275,983.947c-8.541-3.845-15.713-6.896-22.73-10.267
		c-19.459-9.352-38.895-18.756-58.251-28.317c-6.482-3.201-12.871-2.461-19.432-0.749c-7.717,2.014-15.465,3.912-23.172,5.965
		c-4.481,1.193-6.854-0.418-7.955-4.898c-1.429-5.802-3.434-11.461-4.864-17.263c-1.741-7.06-0.766-8.713,6.178-10.825
		c7.926-2.411,15.81-5.185,23.916-6.723c7.786-1.477,11.88-6.58,15.878-12.467c14.194-20.905,28.478-41.75,42.794-62.571
		c1.607-2.337,3.633-4.388,6.741-8.096c4.421,13.236,7.557,24.945,9.196,36.975c0.346,2.534-1.554,5.7-3.126,8.114
		c-7.618,11.701-15.417,23.286-23.271,34.831c-5.377,7.903-4.659,10.833,4.092,15.218c11.888,5.956,23.696,12.072,35.68,17.825
		c6.456,3.1,10.555,7.326,11.787,14.794c1.129,6.849,3.725,13.448,5.512,20.202C2308.795,977.771,2308.805,979.989,2309.275,983.947
		z"/>
	<path fill-rule="evenodd" clip-rule="evenodd" d="M2212.203,1154.402c7.117,6.236,12.609,10.859,17.89,15.713
		c15.684,14.419,31.354,28.858,46.885,43.442c6.066,5.697,12.482,9.517,21.326,8.797c6.939-0.565,13.979-0.026,20.967,0.211
		c2.834,0.097,5.652,0.694,7.942,0.994c0,9.082,0.033,17.014-0.013,24.944c-0.028,4.924-2.66,7.273-7.516,7.266
		c-8.992-0.014-17.988,0.12-26.976-0.091c-5.952-0.139-10.701,1.677-15.454,5.519c-19.922,16.107-40.182,31.798-60.37,47.574
		c-2.765,2.16-5.82,3.947-10.407,7.025c0-6.546-0.418-11.062,0.066-15.479c3.198-29.075-3.312-20.596,19.356-39.185
		c6.691-5.488,13.678-10.626,20.237-16.264c7.775-6.682,7.511-9.917-0.091-16.859c-10.077-9.204-19.967-18.614-29.971-27.898
		c-4.438-4.119-6.423-8.965-5.85-15.155C2211.1,1175.527,2211.478,1166.052,2212.203,1154.402z"/>
	<path fill-rule="evenodd" clip-rule="evenodd" d="M1881.964,1983.157c-6.655-6.952-12.07-12.609-18.19-19.003
		c3.314-3.797,5.903-7.149,8.882-10.111c25.75-25.61,51.565-51.154,77.371-76.705c6.65-6.585,7.792-6.704,14.678-0.204
		c3.812,3.599,7.164,7.686,11.332,12.214c-2.625,3.08-4.57,5.667-6.824,7.948c-6.55,6.635-13.26,13.113-19.839,19.72
		c-6.108,6.136-6.327,8.606-0.107,15.005c13.005,13.378,26.313,26.46,39.437,39.724c5.576,5.636,10.999,11.423,16.864,17.529
		c-6.756,7.194-12.787,13.728-18.957,20.127c-2.43,2.52-5.291,2.716-7.989,0.286c-2.227-2.005-4.357-4.12-6.468-6.249
		c-14.539-14.68-29.061-29.377-43.592-44.065c-0.938-0.946-1.875-1.898-2.874-2.778c-7.416-6.529-10.567-6.477-17.783,0.628
		C1899.637,1965.361,1891.49,1973.621,1881.964,1983.157z"/>
	<path fill-rule="evenodd" clip-rule="evenodd" d="M2251.596,1609.577c-4.353,10.473-8.267,19.894-12.503,30.085
		c-2.969-0.865-5.477-1.365-7.805-2.31c-22.206-9.017-44.359-18.165-66.577-27.152c-9.062-3.665-10.35-3.233-14.493,5.821
		c-4.151,9.071-7.715,18.41-11.655,27.579c-3.237,7.528-4.417,8.011-12.064,4.926c-4.917-1.983-9.722-4.24-14.39-6.293
		c0.307-7.477,42.672-112.871,49.591-123.17c6.086,2.421,12.579,4.661,18.754,7.577c4.288,2.025,3.466,5.913,1.976,9.559
		c-3.527,8.634-6.951,17.311-10.609,25.888c-3.974,9.315-2.687,13.136,6.824,17.091c21.826,9.077,43.736,17.95,65.602,26.936
		C2246.349,1606.979,2248.368,1608.049,2251.596,1609.577z"/>
	<path fill-rule="evenodd" clip-rule="evenodd" d="M706.312,2117.9c3.716-8.495,6.857-15.674,10.502-24.005
		c41.065,17.518,80.37,36.515,121.476,54.84c-3.573,7.597-6.269,13.944-9.511,20.001c-2.078,3.882-5.566,2.625-8.769,1.21
		c-9.433-4.169-18.93-8.194-28.297-12.505c-9.024-4.152-11.042-3.434-15.061,5.658c-10.219,23.112-20.511,46.191-30.819,69.265
		c-0.381,0.852-1.247,1.486-2.548,2.984c-9.886-2.905-19.352-7.212-29.485-13.394c3.685-8.857,7.018-17.419,10.776-25.788
		c7.223-16.087,14.713-32.053,22.037-48.094c3.168-6.939,2.075-9.919-5.135-13.364c-8.1-3.871-16.333-7.461-24.465-11.269
		C713.761,2121.92,710.627,2120.146,706.312,2117.9z"/>
	<path fill-rule="evenodd" clip-rule="evenodd" d="M2075.626,1906.947c-30.119-23.701-60.519-47.622-91.925-72.335
		c6.05-7.765,11.397-14.831,16.979-21.707c2.786-3.433,6.194-3.444,9.617-0.671c1.55,1.254,3.116,2.487,4.691,3.708
		c24.657,19.114,49.336,38.2,73.949,57.372c2.837,2.21,5.299,4.903,7.762,7.21
		C2092.85,1889.384,2083.013,1901.851,2075.626,1906.947z"/>
	<path fill-rule="evenodd" clip-rule="evenodd" d="M569.857,1994.565c-25.116,30.84-49.591,60.893-74.96,92.042
		c-9.045-7.479-17.111-14.146-25.957-21.46c6.146-7.765,11.791-15.044,17.593-22.196c17.409-21.454,34.874-42.863,52.332-64.277
		c4.284-5.254,6.13-5.475,11.436-1.013C556.597,1982.955,562.756,1988.413,569.857,1994.565z"/>
	<path fill-rule="evenodd" clip-rule="evenodd" d="M586.578,242.892c8.133-7.954,17.655-12.431,28.013-17.647
		c5.355,8.304,10.659,16.234,15.669,24.346c13.974,22.625,27.895,45.282,41.691,68.015c4.794,7.9,4.527,8.475-3.058,13.303
		c-4.492,2.859-9.04,5.634-13.628,8.336c-6.042,3.558-7.231,3.475-11.249-2.713c-6.33-9.754-12.212-19.798-18.362-29.671
		c-12.308-19.758-24.677-39.478-36.987-59.234C587.983,246.527,587.601,245.237,586.578,242.892z"/>
	<path fill-rule="evenodd" clip-rule="evenodd" d="M1048.41,2319.646c-2.809-0.341-8.124-0.767-13.354-1.677
		c-6.373-1.109-7.069-2.18-6.174-8.785c3.125-23.045,6.353-46.078,9.503-69.119c1.439-10.534,2.752-21.085,4.193-31.619
		c1.015-7.42,3.262-9.23,10.439-8.342c5.27,0.654,10.493,1.827,15.776,2.192c4.964,0.343,7.326,2.5,7.135,7.453
		c-0.052,1.329,0.047,2.675-0.127,3.986c-2.531,19.087-5.095,38.171-7.657,57.253c-1.724,12.851-3.328,25.718-5.231,38.541
		C1061.424,2319.552,1060.665,2320.026,1048.41,2319.646z"/>
	<path fill-rule="evenodd" clip-rule="evenodd" d="M479.611,1599.803c8.237,1.584,11.496-2.166,14.757-5.155
		c10.063-9.223,19.859-18.737,29.798-28.097c20.604-19.405,41.054-38.978,61.901-58.119c22.568-20.72,45.322-41.248,68.352-61.453
		c24.527-21.521,49.33-42.734,74.274-63.77c21.884-18.453,43.921-36.737,66.278-54.612c20.271-16.207,40.893-31.989,61.671-47.542
		c23.44-17.545,47.083-34.829,70.9-51.862c39.55-28.286,80.465-54.487,122.361-79.17c56.884-33.512,115.563-63.37,177.622-86.126
		c27.49-10.081,55.448-18.722,84.002-25.612c31.51-7.603,63.438-12.471,95.575-14.933c25.138-1.925,50.44-1.41,75.781,1.855
		c31.381,4.044,61.576,11.656,90.206,24.635c37.086,16.813,69.484,40.282,96.312,71.325c14.935,17.281,26.458,36.526,37.271,56.488
		c11.889,21.948,24.977,43.245,37.511,64.843c18.549,31.968,37.151,63.906,55.581,95.943c15.268,26.543,30.17,53.296,45.501,79.802
		c17.836,30.836,36.052,61.452,53.936,92.262c13.195,22.732,26.058,45.658,39.187,68.43c11.474,19.903,23.125,39.704,34.663,59.57
		c1.491,2.568,2.773,5.26,4.817,9.162c-3.257,0.316-5.642,0.75-8.025,0.75c-103.981,0.013-207.964-0.078-311.944,0.016
		c-23.958,0.021-47.914,0.683-71.872,0.983c-2.579,0.033-5.164-0.378-8.241-0.623c-0.061-5.288,4.042-7.073,6.538-9.789
		c15.99-17.401,33.147-33.861,47.878-52.266c29.097-36.354,48.656-77.658,59.505-123.096c8.238-34.5,9.233-69.615,5.321-104.32
		c-5.427-48.119-24.963-90.608-58.576-126.435c-31.716-33.803-70.124-56.771-112.774-73.547
		c-25.196-9.91-51.17-17.189-77.709-22.217c-41.057-7.779-82.591-11.2-124.316-9.043c-30.912,1.596-61.558,5.851-91.881,12.778
		c-47.903,10.945-94.019,26.882-139.095,46.225c-48.148,20.663-94.23,45.314-138.938,72.453
		c-27.31,16.577-53.924,34.37-80.221,52.529c-28.749,19.855-57.216,40.18-84.992,61.366c-30.956,23.611-61.181,48.198-91.36,72.808
		c-16.243,13.245-31.75,27.394-47.515,41.22c-2.141,1.877-3.847,4.25-5.839,6.488c3.438,3.395,6.171,1.872,8.612,0.269
		c8.345-5.48,16.605-11.09,24.856-16.709c20.886-14.226,41.62-28.678,62.669-42.655c12.751-8.468,25.784-16.555,39.03-24.224
		c25.048-14.501,50.33-28.597,75.536-42.824c33.163-18.718,68.096-33.618,103.778-46.634c27.191-9.92,54.966-17.911,83.458-23.778
		c28.515-5.872,57.265-8.536,86.141-10.225c22.987-1.343,45.893,1.069,68.583,5.149c26.073,4.688,50.94,12.919,74.584,24.907
		c35.854,18.177,65.693,43.291,85.846,78.269c11.82,20.516,19.427,42.896,21.533,66.985c1.547,17.706,1.242,35.276-0.578,52.842
		c-1.798,17.357-6.871,34.003-14.016,49.809c-9.867,21.833-24.125,40.674-42.755,55.844c-13.187,10.737-27.228,20.456-43.625,25.655
		c-6.171,1.956-12.99,2.568-19.516,2.575c-22.298,0.024-44.597-0.737-66.895-0.761c-91.985-0.099-183.969,0.009-275.954-0.042
		c-162.637-0.09-325.275-0.24-487.912-0.365c-3.559-0.003-7.119,0-12.353,0c1.835-4.361,2.666-7.139,4.083-9.572
		c11.561-19.853,23.33-39.583,34.846-59.462c15.347-26.491,30.514-53.086,45.775-79.627c17.579-30.569,35.086-61.181,52.792-91.677
		c17.375-29.925,35.093-59.65,52.415-89.604c16.822-29.093,33.291-58.39,49.995-87.551c14.228-24.84,28.55-49.626,42.864-74.417
		c15.315-26.525,30.696-53.014,46-79.544c11.479-19.899,22.849-39.86,34.331-59.757c14.297-24.773,28.617-49.533,43.006-74.252
		c14.064-24.163,28.285-48.235,42.328-72.412c10.187-17.539,20.171-35.197,30.289-52.777
		c19.424-33.752,38.906-67.471,58.314-101.233c17.089-29.726,34.03-59.538,51.18-89.228c18.488-32.005,37.132-63.918,55.727-95.86
		c27.626-47.458,55.41-94.825,82.853-142.387c17.114-29.66,33.718-59.614,50.587-89.416c0.771-1.362,1.896-2.524,3.52-4.646
		c2.039,2.537,3.89,4.314,5.12,6.449c15.79,27.399,31.375,54.918,47.248,82.271c15.872,27.352,32.075,54.512,48.016,81.824
		c23.328,39.966,46.483,80.034,69.839,119.984c22.175,37.93,44.594,75.717,66.744,113.662
		c10.235,17.535,20.098,35.287,30.092,52.964c0.762,1.347,1.217,2.866,2.119,5.038c-2.692,0.4-4.594,1.084-6.402,0.892
		c-42.961-4.554-85.194,1.131-126.904,10.392c-41.74,9.268-81.701,24.098-120.283,42.657
		c-37.589,18.082-73.768,38.649-108.206,62.094c-22.532,15.338-44.492,31.604-65.905,48.472
		c-25.079,19.758-49.422,40.46-73.807,61.08c-10.42,8.812-20.429,18.16-30.124,27.769c-31.454,31.172-63.419,61.877-93.775,94.093
		c-29.216,31.005-56.879,63.489-84.842,95.656c-20.094,23.116-40.015,46.414-59.183,70.297
		c-22.077,27.507-43.246,55.743-64.8,83.669c-11.189,14.498-22.494,28.908-33.496,43.548
		c-10.593,14.099-20.913,28.403-31.262,42.684c-15.038,20.75-30.038,41.53-44.958,62.367c-3.68,5.14-7.086,10.487-10.403,15.871
		c-0.927,1.506-1.084,3.485-1.721,5.681c4.902,0.896,6.692-2.44,8.637-4.736c13.113-15.492,26.042-31.143,39.054-46.721
		c21.776-26.073,43.349-52.321,65.416-78.146c28.118-32.911,56.135-65.932,85.12-98.071
		c34.783-38.569,69.893-76.887,106.058-114.151c34.082-35.117,69.355-69.104,104.772-102.89
		c35.693-34.048,73.782-65.394,113.232-94.981c38.117-28.589,77.747-54.938,119.702-77.723
		c27.263-14.807,55.281-27.862,84.334-38.67c25.603-9.523,51.8-16.796,78.589-22.497c40.551-8.63,81.41-8.823,122.353-6.675
		c25.997,1.365,51.294,7.874,76.368,14.793c4.59,1.267,8.561,3.212,11.172,7.672c14.938,25.52,30.038,50.948,46,77.958
		c-3.656-0.536-5.807-0.474-7.666-1.18c-36.367-13.814-73.962-22.142-112.731-25.035c-22.641-1.689-45.246-1.14-67.864,1.247
		c-46.965,4.957-92.627,15.398-136.685,32.333c-21.734,8.354-43.435,17.032-64.354,27.2c-27.801,13.511-55.264,27.86-82.047,43.28
		c-21.877,12.595-42.483,27.388-63.766,41.03c-34.524,22.128-67.118,46.905-98.859,72.762
		c-25.287,20.599-50.039,41.878-74.531,63.42c-24.005,21.114-47.917,42.39-70.905,64.594c-30.905,29.852-61.517,60.062-91.1,91.214
		c-36.457,38.392-72.213,77.479-107.371,117.064c-34.49,38.833-67.882,78.641-101.657,118.105
		C486.593,1589.327,483.748,1594.012,479.611,1599.803z"/>
</g>
</svg>
