<?xml version="1.0"?><svg width="640" height="480" xmlns="http://www.w3.org/2000/svg">
 <title>beautiful swirls underline</title>
 <g>
  <title>Layer 1</title>
  <g id="layer1" opacity="0.8">
   <path id="path2389" fill="#046d6d" fill-rule="evenodd" stroke="#000000" stroke-width="1px" d="m307.009125,292.396606c28.550507,-14.871887 43.148712,-15.053833 53.793823,-11.471039c-16.007751,4.91391 -33.940002,12.616699 -53.611328,24.011322l-0.016998,0.084839c21.194061,-11.040009 40.246094,-18.323914 56.980286,-22.808777c5.4953,2.370941 10.101959,5.534698 15.532227,7.629303c45.42157,26.938843 72.174744,12.960114 69.00354,5.182861c3.565704,-12.464447 -28.580994,-31.834076 -86.499695,-14.515442c-10.77533,-4.520508 -25.655365,-5.258484 -55.18161,11.844482l-0.000244,0.04245zm58.239471,-10.471008c53.828308,-14.119568 83.389435,0.848206 83.086823,12.437256c-0.026276,-0.038879 -0.053589,-0.078857 -0.080872,-0.117249c0.026703,0.051636 0.039948,0.104828 0.064056,0.157501c-0.033234,1.039856 -0.294586,2.049866 -0.813599,3.011261c0.491089,-0.665833 0.859894,-1.364716 1.102722,-2.089172c1.073181,7.484344 -24.220978,18.351135 -68.92038,-5.522766c-4.9487,-2.002869 -9.285034,-5.255463 -14.438751,-7.876831zm82.256409,15.48877c-0.055389,0.074554 -0.106049,0.148621 -0.164551,0.222656l-0.000427,0.08493c0.061218,-0.101074 0.109467,-0.204865 0.164978,-0.307587zm0.749542,-3.168762c-0.02829,-0.053772 -0.049835,-0.107483 -0.080658,-0.160187l-0.000214,0.039764c0.029907,0.03949 0.051971,0.080444 0.080872,0.120422z"/>
   <path id="path2401" fill="#046d6d" fill-rule="evenodd" stroke="#000000" stroke-width="1px" d="m307.638458,310.244537c-29.774231,16.567047 -44.996796,16.774933 -56.096008,12.790009c16.693939,-5.476288 35.395966,-14.057922 55.911255,-26.750458l0.02124,-0.09491c-22.106903,12.298767 -41.976227,20.414063 -59.42746,25.413361c-5.729599,-2.637634 -10.531631,-6.158112 -16.193741,-8.488007c-47.354385,-29.97348 -75.256592,-14.401642 -71.952255,-5.744049c-3.722717,13.877441 29.792358,35.429321 90.193481,16.127411c11.234131,5.028839 26.750519,5.844482 57.543243,-13.206146l0.000244,-0.047211zm-60.731598,11.67804c-56.134567,15.738953 -86.954987,-0.913025 -86.634903,-13.815399c0.026764,0.043152 0.055084,0.087891 0.083908,0.131042c-0.028244,-0.057465 -0.041443,-0.117004 -0.067093,-0.175537c0.035339,-1.157684 0.308197,-2.282318 0.850067,-3.352417c-0.512741,0.741089 -0.897491,1.518982 -1.150589,2.325684c-1.116699,-8.331909 25.262955,-20.438538 71.865265,6.123199c5.159805,2.227997 9.680099,5.847321 15.053345,8.763428zm-85.768021,-17.212311c0.05748,-0.083618 0.110306,-0.166138 0.170898,-0.248138l0.000473,-0.095001c-0.063339,0.112732 -0.113724,0.22876 -0.171371,0.34314zm-0.782974,3.527954c0.029297,0.059082 0.051819,0.119202 0.084213,0.178314l0.000229,-0.044586c-0.031433,-0.043701 -0.05455,-0.089478 -0.084442,-0.133728z"/>
   <path id="path2423" fill="#046d6d" fill-rule="evenodd" stroke="#000000" stroke-width="1px" d="m299.599731,308.96405c50.559204,17.454041 76.51889,17.885071 95.502899,13.946564c-28.39743,-5.866913 -60.177582,-14.954834 -94.996613,-28.294678l-0.028595,-0.09729c37.532715,12.956848 71.309906,21.582703 101.00592,26.970062c9.807404,-2.629944 18.045563,-6.180115 27.733582,-8.494263c81.174408,-30.136505 128.551727,-13.731628 122.794525,-4.879669c6.160706,14.318085 -51.291321,35.995178 -154.046478,15.292816c-19.229095,5.009125 -45.703552,5.627167 -97.965485,-14.394684l0.000244,-0.048859zm103.424652,12.869751c95.525146,16.978607 148.314911,0.300598 147.945038,-12.966919c-0.046875,0.044342 -0.093811,0.089752 -0.145935,0.133545c0.052185,-0.059174 0.073242,-0.120117 0.120239,-0.179321c-0.045959,-1.191071 -0.496826,-2.35025 -1.404541,-3.45871c0.862671,0.769531 1.507324,1.574554 1.928711,2.407593c2.019592,-8.548645 -42.807007,-21.369934 -122.651154,5.270142c-8.829834,2.216675 -16.588501,5.872345 -25.792358,8.793671zm146.514801,-16.471405c-0.098206,-0.086517 -0.186035,-0.171936 -0.289368,-0.257385l0.000488,-0.097687c0.108398,0.117371 0.190857,0.236725 0.288879,0.355072zm1.284302,3.638031c-0.046997,0.060272 -0.088806,0.121674 -0.146179,0.181854l0.000183,-0.045624c0.057312,-0.04483 0.09906,-0.091339 0.145996,-0.13623z"/>
   <path id="path2425" fill="#046d6d" fill-rule="evenodd" stroke="#000000" stroke-width="1px" d="m300.880676,294.939178c-50.56073,-17.454071 -76.520935,-17.885071 -95.504959,-13.946533c28.397415,5.866852 60.177597,14.954803 94.997665,28.294647l0.025421,0.09726c-37.53009,-12.956818 -71.30777,-21.582672 -101.003769,-26.970032c-9.806915,2.629944 -18.045593,6.180115 -27.733658,8.494232c-81.172821,30.136536 -128.549091,13.731659 -122.796017,4.8797c-6.160244,-14.318054 51.294422,-35.995178 154.048046,-15.292816c19.229095,-5.009155 45.703568,-5.627167 97.967514,14.394714l-0.000244,0.048828zm-103.426697,-12.869751c-95.525146,-16.978638 -148.316429,-0.300598 -147.946632,12.966919c0.046394,-0.044373 0.095936,-0.089752 0.145432,-0.133057c-0.049065,0.058685 -0.07325,0.119629 -0.116585,0.178864c0.043858,1.19101 0.49371,2.35022 1.403522,3.458679c-0.864281,-0.769531 -1.509441,-1.574554 -1.930798,-2.407623c-2.017506,8.549194 42.80854,21.369934 122.652687,-5.270111c8.829849,-2.216644 16.588547,-5.872345 25.792374,-8.793671zm-146.514263,16.471405c0.097118,0.086517 0.185944,0.171906 0.288258,0.257385l-0.000484,0.097687c-0.106812,-0.117371 -0.190815,-0.236725 -0.287773,-0.355072zm-1.286938,-3.637543c0.050659,-0.06076 0.089859,-0.122131 0.145679,-0.182404l-0.000229,0.045654c-0.054192,0.044861 -0.093853,0.09137 -0.145451,0.136749z"/>
  </g>
 </g>
</svg>